<?xml version="1.0" encoding="UTF-8" standalone="no"?>
<svg
   xmlns:dc="http://purl.org/dc/elements/1.1/"
   xmlns:cc="http://creativecommons.org/ns#"
   xmlns:rdf="http://www.w3.org/1999/02/22-rdf-syntax-ns#"
   xmlns:svg="http://www.w3.org/2000/svg"
   xmlns="http://www.w3.org/2000/svg"
   xmlns:sodipodi="http://sodipodi.sourceforge.net/DTD/sodipodi-0.dtd"
   xmlns:inkscape="http://www.inkscape.org/namespaces/inkscape"
   version="1.0"
   width="210mm"
   height="297mm"
   id="svg43"
   sodipodi:docname="logo.svg"
   inkscape:version="0.92.4 (5da689c313, 2019-01-14)">
  <metadata
     id="metadata47">
    <rdf:RDF>
      <cc:Work
         rdf:about="">
        <dc:format>image/svg+xml</dc:format>
        <dc:type
           rdf:resource="http://purl.org/dc/dcmitype/StillImage" />
        <dc:title></dc:title>
      </cc:Work>
    </rdf:RDF>
  </metadata>
  <sodipodi:namedview
     pagecolor="#ffffff"
     bordercolor="#666666"
     borderopacity="1"
     objecttolerance="10"
     gridtolerance="10"
     guidetolerance="10"
     inkscape:pageopacity="0"
     inkscape:pageshadow="2"
     inkscape:window-width="2560"
     inkscape:window-height="1377"
     id="namedview45"
     showgrid="false"
     inkscape:snap-bbox="true"
     inkscape:bbox-nodes="false"
     inkscape:object-paths="true"
     inkscape:zoom="32"
     inkscape:cx="340.59449"
     inkscape:cy="510.91156"
     inkscape:window-x="-8"
     inkscape:window-y="-8"
     inkscape:window-maximized="1"
     inkscape:current-layer="svg43"
     inkscape:lockguides="false"
     inkscape:snap-intersection-paths="true"
     inkscape:snap-smooth-nodes="true"
     inkscape:measure-start="35.5653,73.3513"
     inkscape:measure-end="37.1621,72.5244"
     fit-margin-right="0" />
  <defs
     id="defs3">
    <pattern
       id="EMFhbasepattern"
       patternUnits="userSpaceOnUse"
       width="6"
       height="6"
       x="0"
       y="0" />
  </defs>
  <path
     style="fill:#000000;fill-opacity:1;fill-rule:evenodd;stroke:#000000;stroke-width:0.00600449px;stroke-linecap:round;stroke-linejoin:round;stroke-miterlimit:4;stroke-dasharray:none;stroke-opacity:1"
     d="m 331.32665,624.23824 c -0.62447,1.0969 -1.53715,1.9613 -2.72604,2.5754 -1.32699,0.6974 -2.93019,1.0492 -4.79759,1.0492 -1.65724,0 -2.87615,-0.3518 -3.66273,-1.0492 -0.77458,-0.6439 -1.15887,-1.6275 -1.15887,-2.939 0,-1.3711 0.4083,-2.4025 1.22492,-3.0999 0.84062,-0.7512 2.2817,-1.2639 4.31722,-1.5321 2.03552,-0.2683 3.63872,-0.5783 4.80359,-0.93 0.95472,-0.2921 1.61521,-0.6021 1.9995,-0.93 z m -5.59619,-17.1569 c -2.2757,0 -4.11307,0.5008 -5.4941,1.4963 -1.41106,1.0552 -2.2757,2.6171 -2.59995,4.6976 -0.0841,0.4054 0,0.7273 0.24619,0.9657 0.21616,0.2445 0.48636,0.3816 0.81661,0.4054 0.35426,0.03 0.66049,-0.054 0.90668,-0.2444 0.30022,-0.1908 0.48036,-0.459 0.5344,-0.8107 0.13209,-1.3533 0.60645,-2.3846 1.42306,-3.0881 0.92469,-0.8107 2.30572,-1.2161 4.1491,-1.2161 1.89742,0 3.32048,0.3517 4.26919,1.0552 0.90068,0.6736 1.34501,1.6751 1.34501,3.0045 0,1.1625 -0.40831,1.9613 -1.22492,2.3906 -0.84663,0.465 -2.72003,0.9001 -5.63821,1.3055 -3.29647,0.4054 -5.56616,1.3056 -6.8211,2.7124 -0.84063,0.9718 -1.26094,2.3429 -1.26094,4.1253 0,1.9733 0.61846,3.4994 1.85538,4.5784 1.26695,1.1267 3.12234,1.693 5.56016,1.693 1.78333,0 3.38653,-0.3219 4.79759,-0.9597 1.02676,-0.4531 1.94545,-1.0731 2.76206,-1.86 0,0.8406 0.24018,1.4307 0.72654,1.7825 0.60045,0.3696 1.66925,0.5603 3.2124,0.5603 0.38429,0 0.68452,-0.1252 0.90068,-0.3636 0.18614,-0.2206 0.28221,-0.4769 0.28221,-0.781 -0.03,-0.3278 -0.13811,-0.6021 -0.32424,-0.8226 -0.21617,-0.2146 -0.48637,-0.3279 -0.81661,-0.3279 -0.48637,0 -0.86465,-0.1312 -1.13485,-0.4054 -0.24619,-0.2384 -0.36628,-0.5842 -0.36628,-1.0492 v -12.7872 c 0,-2.1282 -0.78658,-3.702 -2.36576,-4.7214 -1.38104,-0.8883 -3.29647,-1.3354 -5.7403,-1.3354 z"
     id="path5"
     inkscape:connector-curvature="0" />
  <path
     style="fill:#000000;fill-opacity:1;fill-rule:evenodd;stroke:#000000;stroke-width:0.00600449px;stroke-linecap:round;stroke-linejoin:round;stroke-miterlimit:4;stroke-dasharray:none;stroke-opacity:1"
     d="m 347.77344,607.08203 c -2.19764,0 -3.91723,0.43459 -5.28198,1.67996 -1.34602,1.22828 -2.18121,3.35775 -2.12553,5.03648 0.0557,1.67873 0.81486,3.07942 1.53913,3.8836 0.72427,0.80418 2.04379,1.88515 4.95549,1.8479 l 0.0103,-2.34766 c -3.99465,-0.21399 -4.0605,-3.55873 -4.01344,-4.0866 0.0471,-0.52787 0.58969,-2.08514 1.45314,-2.73829 0.84735,-0.74308 2.0446,-1.07031 3.43164,-1.07031 1.81335,0 3.18272,0.33997 4.10742,1.01367 0.86464,0.6259 1.35676,1.53817 1.46484,2.73047 0.024,0.3815 0.18625,0.67993 0.48047,0.89453 0.2702,0.1908 0.58338,0.26804 0.93164,0.24414 0.37828,-0.054 0.68365,-0.19165 0.92383,-0.40625 0.2702,-0.2682 0.39121,-0.5951 0.36719,-0.9707 -0.1381,-1.6453 -0.81639,-2.9692 -2.0293,-3.9707 -1.40505,-1.1565 -3.47679,-1.74024 -6.21484,-1.74024 z m 1.73688,10.10809 0.0131,2.33985 c 1.88103,0.019 2.84363,0.8577 3.24608,1.14947 0.66067,0.51422 1.03806,1.27923 1.14231,1.80053 0.10425,0.5213 0.0764,1.11347 0.0764,1.38917 0,1.1804 -0.47526,2.12086 -1.41797,2.81836 -1.00274,0.7809 -2.3774,1.17578 -4.13672,1.17578 -2.10757,0 -3.63933,-0.39488 -4.58203,-1.17578 -0.89467,-0.7273 -1.33789,-1.78851 -1.33789,-3.19531 -0.03,-0.3756 -0.18097,-0.65491 -0.45117,-0.84571 -0.24618,-0.1907 -0.54598,-0.26794 -0.90625,-0.24414 -0.35426,0 -0.64321,0.10767 -0.85937,0.32227 -0.28821,0.2444 -0.41465,0.55995 -0.39063,0.93555 0.0841,2.1103 0.84798,3.72518 2.28906,4.83398 1.44108,1.1028 3.50515,1.6582 6.20117,1.6582 2.69001,0 4.75619,-0.61941 6.19727,-1.85351 1.33299,-1.1088 2,-2.56476 2,-4.37695 0,-0.45157 0.0314,-1.06673 -0.0384,-1.46973 -0.1808,-1.21176 -0.86717,-2.55241 -1.6315,-3.38794 -1.08172,-1.02417 -2.63967,-1.85238 -5.4135,-1.87409 z"
     id="path7"
     inkscape:connector-curvature="0"
     sodipodi:nodetypes="sazzcczcscccccccsccczscscccccccscscccc" />
  <path
     style="fill:#000000;fill-opacity:1;fill-rule:evenodd;stroke:#000000;stroke-width:0.00600449px;stroke-linecap:round;stroke-linejoin:round;stroke-miterlimit:4;stroke-dasharray:none;stroke-opacity:1"
     d="m 363.91901,602.16314 v 5.5918 h -2.16162 c -0.61246,0 -0.91869,0.3577 -0.91869,1.0791 0,0.7451 0.30623,1.1207 0.91869,1.1207 h 2.16162 v 16.2687 c 0,1.0551 0.33024,1.9494 0.98473,2.6766 0.71454,0.8346 1.69927,1.2519 2.95421,1.2519 h 1.92744 c 0.38429,0 0.70253,-0.1251 0.94871,-0.3696 0.21616,-0.2205 0.32424,-0.4709 0.32424,-0.7749 0,-0.3279 -0.10808,-0.6021 -0.32424,-0.8227 -0.24618,-0.2146 -0.55842,-0.3219 -0.9427,-0.3219 h -1.4711 c -0.60045,0 -1.0628,-0.2027 -1.38704,-0.6081 -0.2702,-0.3279 -0.4083,-0.7333 -0.4083,-1.2161 v -16.0839 h 3.29646 c 0.69652,0 1.04478,-0.3756 1.04478,-1.1207 0,-0.7214 -0.34826,-1.0791 -1.04478,-1.0791 h -3.29646 v -5.5918 c 0,-0.3994 -0.13811,-0.7153 -0.40831,-0.9299 -0.25219,-0.1848 -0.55241,-0.2802 -0.91268,-0.2802 -0.36027,0 -0.6605,0.095 -0.90668,0.2802 -0.25219,0.2146 -0.37828,0.5305 -0.37828,0.9299 z"
     id="path9"
     inkscape:connector-curvature="0" />
  <path
     style="fill:#000000;fill-opacity:1;fill-rule:evenodd;stroke:#000000;stroke-width:0.00600449px;stroke-linecap:round;stroke-linejoin:round;stroke-miterlimit:4;stroke-dasharray:none;stroke-opacity:1"
     d="m 399.50761,608.50614 v 20.3105 c 0,0.3875 0.12009,0.6975 0.36627,0.9538 0.24018,0.1908 0.5344,0.2862 0.88867,0.2862 0.32424,0 0.60645,-0.095 0.84663,-0.2862 0.2702,-0.2563 0.4023,-0.5663 0.4023,-0.9538 l -0.036,-15.2851 c 0.48637,-1.0492 1.1949,-1.8659 2.11959,-2.462 1.02677,-0.6737 2.28771,-1.6156 3.6147,-1.6156 0.67851,0 0.9367,-0.7094 0.9367,-1.1446 0.024,-0.4173 -0.43833,-1.1744 -1.03277,-1.1744 -1.30898,0 -2.37177,0.2624 -3.40455,0.8823 -0.78658,0.4829 -1.51313,1.1983 -2.19764,2.1402 v -1.6573 c 0,-0.3756 -0.1321,-0.6736 -0.4023,-0.8882 -0.24018,-0.161 -0.52239,-0.2385 -0.84663,-0.2385 -0.35427,0 -0.64849,0.095 -0.88867,0.2802 -0.24618,0.2206 -0.36627,0.5008 -0.36627,0.8525 z"
     id="path11"
     inkscape:connector-curvature="0" />
  <path
     style="fill:#000000;fill-opacity:1;fill-rule:evenodd;stroke:#000000;stroke-width:0.006;stroke-linecap:round;stroke-linejoin:round;stroke-miterlimit:4;stroke-dasharray:none;stroke-opacity:1"
     d="m 458.74849,599.01764 c -0.53571,-0.031 -1.09061,0.016 -1.58594,0.1406 -0.66829,0.1676 -1.05724,0.2871 -1.75976,1.0859 -0.61846,0.7214 -0.92969,1.6204 -0.92969,2.6934 v 4.8184 h -2.0293 c -0.40831,0 -0.73833,0.1058 -0.97851,0.3144 -0.21617,0.2146 -0.32422,0.4716 -0.32422,0.7637 0,0.2921 0.10805,0.5491 0.32422,0.7637 0.24018,0.2384 0.5702,0.3574 0.97851,0.3574 h 2.0293 v 18.8262 c 0,0.4292 0.11904,0.7746 0.36523,1.0488 0.24018,0.2146 0.54041,0.3223 0.88867,0.3223 0.32424,0 0.60734,-0.1189 0.85352,-0.3633 0.2642,-0.2683 0.40234,-0.6025 0.40234,-1.0078 v -18.8262 h 2.97266 c 0.4023,0 0.73248,-0.119 0.97266,-0.3574 0.21616,-0.2146 0.33007,-0.4716 0.33007,-0.7637 0,-0.2921 -0.11391,-0.5491 -0.33007,-0.7637 -0.24018,-0.2086 -0.57036,-0.3144 -0.97266,-0.3144 h -2.97266 v -4.627 c 0,-0.5007 0.132,-0.9124 0.40821,-1.2344 0.32424,-0.3696 0.76117,-0.5558 1.20898,-0.6015 0.39761,-0.041 1.00921,0.19691 1.00921,0.19691 l 4.12484,1.24743 0.19914,-0.51843 2.76394,0.92771 0.37664,-1.14552 -2.75986,-0.92627 0.17439,-0.52395 -4.54281,-1.33443 c -0.43516,-0.10589 -0.66134,-0.16795 -1.19705,-0.19885 z"
     id="path13"
     inkscape:connector-curvature="0"
     sodipodi:nodetypes="cccscscscscscscscscscscsccccccccccc" />
  <path
     style="fill:#000000;fill-opacity:1;fill-rule:evenodd;stroke:#000000;stroke-width:0.00600449px;stroke-linecap:round;stroke-linejoin:round;stroke-miterlimit:4;stroke-dasharray:none;stroke-opacity:1"
     d="m 436.24907,649.65174 v 5.5918 h -2.16161 c -0.61847,0 -0.92469,0.3577 -0.92469,1.079 0,0.7512 0.30622,1.1208 0.92469,1.1208 h 2.16161 v 16.2687 c 0,1.0551 0.33025,1.9493 0.98474,2.6766 0.70853,0.8346 1.69326,1.2579 2.95421,1.2579 h 1.92744 c 0.38428,0 0.69652,-0.1252 0.9427,-0.3756 0.21616,-0.2206 0.33025,-0.4709 0.33025,-0.775 0,-0.3278 -0.11409,-0.5961 -0.33025,-0.8167 -0.24618,-0.2206 -0.55842,-0.3279 -0.9367,-0.3279 h -1.4711 c -0.60045,0 -1.06279,-0.2027 -1.38703,-0.608 -0.27621,-0.3219 -0.40831,-0.7273 -0.40831,-1.2162 v -16.0838 h 3.29646 c 0.69652,0 1.04479,-0.3696 1.04479,-1.1208 0,-0.7213 -0.34827,-1.079 -1.04479,-1.079 h -3.29646 v -5.5918 c 0,-0.3994 -0.1381,-0.7094 -0.41431,-0.924 -0.24618,-0.1908 -0.55241,-0.2862 -0.91268,-0.2862 -0.35427,0 -0.6605,0.095 -0.90668,0.2862 -0.24618,0.2146 -0.37228,0.5246 -0.37228,0.924 z"
     id="path17"
     inkscape:connector-curvature="0" />
  <path
     style="fill:#000000;fill-opacity:1;fill-rule:evenodd;stroke:#000000;stroke-width:0.00600449px;stroke-linecap:round;stroke-linejoin:round;stroke-miterlimit:4;stroke-dasharray:none;stroke-opacity:1"
     d="m 445.70014,656.26894 7.59567,19.0765 -1.42906,2.9866 c -0.37829,0.8108 -0.72054,1.3592 -1.01476,1.6573 -0.35427,0.3517 -0.82862,0.5246 -1.42307,0.5246 l -165.18346,-0.084 c -0.40831,0 -0.72655,0.1073 -0.94271,0.3219 -0.18614,0.2146 -0.28221,0.465 -0.28221,0.7631 0,0.2921 0.0961,0.5425 0.28221,0.7571 0.21616,0.2385 0.5284,0.3636 0.9367,0.3636 l 165.17747,0.084 c 1.11083,0 2.08355,-0.3398 2.92418,-1.0134 0.86465,-0.6736 1.6032,-1.693 2.22767,-3.0642 l 9.16885,-22.6414 c 0.1321,-0.3219 0.10808,-0.62 -0.0841,-0.8882 -0.19215,-0.2385 -0.46235,-0.4054 -0.81061,-0.4829 -0.35426,-0.084 -0.68451,-0.072 -0.97873,0.042 -0.37828,0.1073 -0.62447,0.3338 -0.73255,0.6855 l -6.46683,16.7218 -6.5509,-16.841 c -0.1381,-0.3517 -0.37228,-0.5723 -0.69652,-0.6617 -0.32424,-0.083 -0.65449,-0.042 -0.97873,0.1192 -0.33025,0.1371 -0.57643,0.3398 -0.73855,0.6081 -0.16212,0.2981 -0.16212,0.62 0,0.9657 z"
     id="path19"
     inkscape:connector-curvature="0" />
  <path
     style="fill:#000000;fill-opacity:1;fill-rule:evenodd;stroke:#000000;stroke-width:0.00600449px;stroke-linecap:round;stroke-linejoin:round;stroke-miterlimit:4;stroke-dasharray:none;stroke-opacity:1"
     d="m 291.84113,654.58184 c -2.90617,0 -5.19988,1.1804 -6.90516,3.559 -1.55516,2.1878 -2.31773,4.8466 -2.31773,8.0121 0,3.1297 0.76257,5.7587 2.31773,7.9287 1.70528,2.3726 3.99899,3.553 6.90516,3.553 2.05354,0 3.83687,-0.5306 5.36201,-1.5858 1.48911,-1.0134 2.61796,-2.462 3.41055,-4.3637 0.16212,-0.4114 0.16212,-0.7869 0,-1.1446 -0.14411,-0.3041 -0.36627,-0.5008 -0.69052,-0.6081 -0.36027,-0.1431 -0.69051,-0.155 -1.01475,-0.042 -0.36027,0.161 -0.61246,0.4412 -0.77458,0.8525 -0.65449,1.4129 -1.39304,2.4621 -2.23367,3.1774 -1.08682,0.9479 -2.43783,1.4248 -4.05904,1.4248 -2.06554,0 -3.69876,-0.924 -4.91767,-2.772 -1.0628,-1.5619 -1.63923,-3.4696 -1.74731,-5.7468 l 2.96622,0.01 v -2.2952 l -2.91818,-0.01 c 0.16212,-1.9792 0.73855,-3.6782 1.7473,-5.1149 1.21891,-1.7646 2.82812,-2.6349 4.83962,-2.6349 2.0055,0 3.62671,0.8882 4.88165,2.6767 1.00275,1.4605 1.57318,3.1476 1.74731,5.0731 l -2.82211,-0.018 v 2.2952 l 5.52413,0.018 v -0.6498 c 0,-3.1715 -0.78659,-5.8363 -2.35376,-8.0301 -1.74731,-2.3845 -4.05303,-3.5649 -6.9472,-3.5649 z m -1.68125,9.3713 v 3.5173 h 3.54264 v -3.5173 z"
     id="path21"
     inkscape:connector-curvature="0" />
  <path
     style="fill:#000000;fill-opacity:1;fill-rule:evenodd;stroke:#000000;stroke-width:0.00600449px;stroke-linecap:round;stroke-linejoin:round;stroke-miterlimit:4;stroke-dasharray:none;stroke-opacity:1"
     d="m 325.11801,654.58184 c -2.90618,0 -5.19989,1.1804 -6.90516,3.559 -1.55517,2.1878 -2.31774,4.8466 -2.31774,8.0121 0,3.1297 0.76257,5.7587 2.31774,7.9287 1.70527,2.3726 3.99898,3.553 6.90516,3.553 2.05954,0 3.83686,-0.5306 5.362,-1.5858 1.48912,-1.0134 2.61796,-2.462 3.41656,-4.3637 0.15611,-0.4114 0.15611,-0.7869 0,-1.1446 -0.15011,-0.3041 -0.37228,-0.5008 -0.69652,-0.6081 -0.36027,-0.1431 -0.69052,-0.155 -1.01476,-0.042 -0.36027,0.161 -0.60645,0.4412 -0.76858,0.8525 -0.66049,1.4129 -1.39904,2.4621 -2.23967,3.1774 -1.08681,0.9479 -2.43782,1.4248 -4.05903,1.4248 -2.06555,0 -3.69877,-0.924 -4.91768,-2.772 -1.06279,-1.5619 -1.63922,-3.4696 -1.74731,-5.7468 l 2.96622,0.01 v -2.2952 l -2.91818,-0.01 c 0.16212,-1.9792 0.73855,-3.6782 1.74731,-5.1149 1.21891,-1.7646 2.82811,-2.6349 4.83961,-2.6349 2.0055,0 3.62671,0.8882 4.88165,2.6767 1.00275,1.4605 1.57918,3.1476 1.74731,5.0731 l -2.82211,-0.018 v 2.2952 l 5.52413,0.018 v -0.6498 c 0,-3.1715 -0.78058,-5.8363 -2.35376,-8.0301 -1.7413,-2.3845 -4.05303,-3.5649 -6.94719,-3.5649 z m -1.68126,9.3713 v 3.5173 h 3.54265 v -3.5173 z"
     id="path23"
     inkscape:connector-curvature="0" />
  <path
     style="fill:#000000;fill-opacity:1;fill-rule:evenodd;stroke:#000000;stroke-width:0.00600449px;stroke-linecap:round;stroke-linejoin:round;stroke-miterlimit:4;stroke-dasharray:none;stroke-opacity:1"
     d="m 377.4231,655.96484 v 20.3165 c 0,0.3815 0.12009,0.6975 0.36628,0.9538 0.24017,0.1908 0.53439,0.2862 0.88866,0.2862 0.31824,0 0.60045,-0.095 0.84663,-0.2862 0.2702,-0.2563 0.4023,-0.5723 0.4023,-0.9538 l -0.036,-15.285 c 0.48636,-1.0492 1.19489,-1.8719 2.11358,-2.4621 1.03277,-0.6736 2.29371,-1.6155 3.6207,-1.6155 0.67251,0 0.9307,-0.7094 0.9367,-1.1506 0.024,-0.4113 -0.43832,-1.1684 -1.03877,-1.1684 -1.30298,0 -2.36577,0.2563 -3.39854,0.8823 -0.78659,0.4828 -1.51914,1.1982 -2.19765,2.1401 v -1.6573 c 0,-0.3755 -0.1321,-0.6736 -0.4023,-0.8882 -0.24618,-0.161 -0.52839,-0.2444 -0.84663,-0.2444 -0.35427,0 -0.64849,0.095 -0.88866,0.2861 -0.24619,0.2146 -0.36628,0.5008 -0.36628,0.8465 z"
     id="path25"
     inkscape:connector-curvature="0" />
  <path
     style="fill:#000000;fill-opacity:1;fill-rule:evenodd;stroke:#000000;stroke-width:0.00600449px;stroke-linecap:round;stroke-linejoin:round;stroke-miterlimit:4;stroke-dasharray:none;stroke-opacity:1"
     d="m 392.98073,648.08984 c -0.50438,0 -0.88866,0.155 -1.16487,0.4769 -0.24618,0.2921 -0.36627,0.6498 -0.36627,1.091 0,0.4113 0.12009,0.7571 0.36627,1.0313 0.27621,0.3159 0.66049,0.4769 1.16487,0.4769 0.47436,0 0.85864,-0.161 1.15887,-0.4769 0.2702,-0.2981 0.4083,-0.6379 0.4083,-1.0313 0,-0.4412 -0.1381,-0.7989 -0.4083,-1.091 -0.30023,-0.3219 -0.68451,-0.4769 -1.15887,-0.4769 z m -0.006,6.486 c -0.36027,0 -0.6605,0.1014 -0.91269,0.3219 -0.24618,0.1908 -0.36627,0.471 -0.36627,0.8466 v 20.5728 c 0,0.3994 0.12009,0.7332 0.36627,1.0015 0.25219,0.2146 0.55242,0.3279 0.91269,0.3279 0.35426,0 0.65449,-0.1252 0.91268,-0.3696 0.2702,-0.2444 0.4083,-0.5604 0.4083,-0.9598 v -20.5728 c 0,-0.3756 -0.1381,-0.6737 -0.4083,-0.8883 -0.25819,-0.1907 -0.55842,-0.2802 -0.91268,-0.2802 z"
     id="path27"
     inkscape:connector-curvature="0" />
  <path
     style="fill:#000000;fill-opacity:1;fill-rule:evenodd;stroke:#000000;stroke-width:0.00600449px;stroke-linecap:round;stroke-linejoin:round;stroke-miterlimit:4;stroke-dasharray:none;stroke-opacity:1"
     d="m 308.53961,646.65914 c -0.36026,0 -0.65448,0.1073 -0.90667,0.3279 -0.28221,0.2444 -0.41431,0.5544 -0.41431,0.9657 v 8.1314 0 20.2688 c 0,0.4053 0.11408,0.7153 0.37228,0.9657 0.24618,0.2146 0.5404,0.3279 0.90667,0.3279 0.36027,0 0.65449,-0.1133 0.91269,-0.3279 0.2702,-0.2504 0.4083,-0.5604 0.4083,-0.9657 v -20.2688 0 -8.1314 c 0,-0.4113 -0.12009,-0.7213 -0.37228,-0.9657 -0.25219,-0.2206 -0.54641,-0.3279 -0.90668,-0.3279 z"
     id="path29"
     inkscape:connector-curvature="0" />
  <path
     style="fill:#000000;fill-opacity:1;fill-rule:evenodd;stroke:#000000;stroke-width:0.00600449px;stroke-linecap:round;stroke-linejoin:round;stroke-miterlimit:4;stroke-dasharray:none;stroke-opacity:1"
     d="m 384.04005,607.09324 c -2.90617,0 -5.19989,1.1744 -6.90516,3.559 -1.55517,2.1878 -2.31774,4.8466 -2.31774,8.0121 0,3.1238 0.76257,5.7587 2.31774,7.9287 1.70527,2.3667 3.99899,3.553 6.90516,3.553 2.05353,0 3.83687,-0.5306 5.36201,-1.5858 1.48911,-1.0134 2.61795,-2.462 3.41054,-4.3637 0.16213,-0.4173 0.16213,-0.7869 0,-1.1446 -0.1441,-0.304 -0.36627,-0.5008 -0.69051,-0.614 -0.36027,-0.1371 -0.69052,-0.1491 -1.01476,-0.036 -0.36027,0.1609 -0.61246,0.4411 -0.77458,0.8525 -0.65449,1.4128 -1.39304,2.462 -2.23367,3.1714 -1.08681,0.9539 -2.43782,1.4308 -4.05903,1.4308 -2.06555,0 -3.69877,-0.924 -4.91768,-2.778 -1.06279,-1.556 -1.63922,-3.4636 -1.7473,-5.7409 l 2.96621,0.01 v -2.2951 l -2.91818,-0.01 c 0.16212,-1.9792 0.73855,-3.6782 1.74731,-5.1149 1.21891,-1.7646 2.82811,-2.635 4.83962,-2.635 2.00549,0 3.62671,0.8823 4.88164,2.6767 1.00275,1.4606 1.57918,3.1476 1.74731,5.0732 l -2.82211,-0.018 v 2.2951 l 5.52413,0.018 v -0.6498 c 0,-3.1714 -0.78659,-5.8362 -2.35376,-8.03 -1.74731,-2.3846 -4.05303,-3.5649 -6.94719,-3.5649 z m -1.68126,9.3654 v 3.5172 h 3.54265 v -3.5172 z"
     id="path31"
     inkscape:connector-curvature="0" />
  <path
     style="opacity:0.83999999;fill:#000000;fill-opacity:1;fill-rule:evenodd;stroke:#000000;stroke-width:0.00600449px;stroke-linecap:round;stroke-linejoin:round;stroke-miterlimit:4;stroke-dasharray:none;stroke-opacity:1"
     d="m 426.7856,648.08994 c -0.51038,0 -0.89386,0.1546 -1.16406,0.4765 -0.25219,0.2921 -0.37305,0.6507 -0.37305,1.0918 0,0.4113 0.12086,0.757 0.37305,1.0313 0.2702,0.3159 0.65368,0.4765 1.16406,0.4765 0.47435,0 0.85212,-0.1606 1.15234,-0.4765 0.27621,-0.2981 0.41016,-0.6378 0.41016,-1.0313 0,-0.4411 -0.13395,-0.7997 -0.41016,-1.0918 -0.30022,-0.3219 -0.67799,-0.4765 -1.15234,-0.4765 z m -16.35547,6.4863 c -3.18238,0 -5.64484,1.18 -7.41016,3.5586 -1.57918,2.1342 -2.35351,4.7984 -2.35351,8.0176 0,3.3205 0.7504,5.9848 2.26953,8.0117 1.71128,2.319 4.20368,3.4824 7.49414,3.4824 2.52189,0 4.55046,-0.5611 6.09961,-1.6699 1.16487,-0.8704 2.15005,-2.1582 2.97266,-3.8692 0.16212,-0.4113 0.14509,-0.7434 -0.041,-1.0117 -0.16812,-0.2802 -0.44007,-0.4478 -0.81836,-0.5312 -0.36027,-0.089 -0.68942,-0.059 -1.01367,0.078 -0.38428,0.1669 -0.62434,0.4289 -0.73242,0.8164 -0.49237,1.4069 -1.23749,2.3959 -2.24024,2.998 -1.00875,0.5962 -2.46723,0.8945 -4.38867,0.8945 -2.34175,0 -4.11312,-0.9177 -5.33203,-2.7539 -1.11684,-1.6751 -1.66992,-3.8449 -1.66992,-6.5156 0,-2.617 0.55308,-4.7584 1.66992,-6.4336 1.24893,-1.9196 3.0203,-2.873 5.33203,-2.873 1.70528,0 3.04471,0.2871 4.02344,0.8593 0.97873,0.6081 1.66186,1.5424 2.07617,2.836 0.0781,0.3815 0.29417,0.6514 0.64844,0.8183 0.30022,0.1372 0.63119,0.1655 1.02148,0.082 0.34826,-0.083 0.6184,-0.255 0.81055,-0.5293 0.21616,-0.2742 0.28314,-0.5838 0.20508,-0.9355 -0.43833,-1.4427 -1.31558,-2.6473 -2.64258,-3.625 -1.6092,-1.1386 -3.59668,-1.7051 -5.98047,-1.7051 z m 16.34961,0 c -0.36627,0 -0.66592,0.1017 -0.91211,0.3222 -0.25219,0.1908 -0.37305,0.4702 -0.37305,0.8457 v 9.5079 h -13.55859 v -0.9063 h -3.54102 v 3.5176 h 3.54102 v -0.9004 h 13.55859 v 9.3535 c 0,0.3994 0.12086,0.7337 0.37305,1.002 0.24619,0.2146 0.54584,0.3281 0.91211,0.3281 0.35427,0 0.65406,-0.1247 0.90625,-0.3691 0.27621,-0.2445 0.41406,-0.5616 0.41406,-0.961 v -20.5723 c 0,-0.3755 -0.13785,-0.674 -0.41406,-0.8886 -0.25219,-0.1908 -0.55198,-0.2793 -0.90625,-0.2793 z"
     id="path33"
     inkscape:connector-curvature="0" />
  <path
     style="fill:#000000;fill-opacity:1;fill-rule:evenodd;stroke:#000000;stroke-width:0.00600449px;stroke-linecap:round;stroke-linejoin:round;stroke-miterlimit:4;stroke-dasharray:none;stroke-opacity:1"
     d="m 285.48872,598.99224 c -0.49236,0.03 -0.78484,0.2034 -1.12109,0.5312 -0.37828,0.3518 -0.57031,0.816 -0.57031,1.4122 l -0.0137,12.2753 v 12.9766 c 0,0.7035 -0.007,1.5679 -0.13867,2.0508 -0.1261,0.4829 -0.60624,0.9299 -0.97852,1.3711 l -5.60351,6.4101 0.41992,0.377 -2.78321,3.0762 1.09571,0.9746 2.77929,-3.0703 0.41797,0.375 5.45703,-6.2657 c 0.36027,-0.4173 0.98537,-1.1863 1.26758,-1.7109 0.28221,-0.5246 0.57031,-0.7748 0.57031,-2.2949 v -14.2696 -9.957 c 3.0511,6.384 5.5675,11.6146 8.65821,18.082 0.43232,0.9956 1.02649,1.4903 1.78906,1.4903 0.78659,0 1.39385,-0.4947 1.82617,-1.4903 l 8.6582,-18.1171 v 25.6464 c 0,0.4054 0.11891,0.7145 0.3711,0.9649 0.24618,0.2146 0.54793,0.3223 0.9082,0.3223 0.36027,0 0.65992,-0.1077 0.91211,-0.3223 0.2702,-0.2504 0.4082,-0.5595 0.4082,-0.9649 v -27.8828 c 0,-0.5961 -0.19203,-1.0604 -0.57031,-1.4121 -0.33625,-0.3279 -0.7381,-0.5014 -1.23047,-0.5312 -0.39029,0 -0.77213,0.081 -1.11719,0.2988 -0.44812,0.2831 -0.77384,0.9072 -0.90039,1.209 l -1.09961,2.3789 c -1.50112,3.1104 -8.14257,16.168 -8.14257,16.168 -2.68613,-5.4519 -5.48733,-10.7153 -8.15235,-16.2149 l -1.09961,-2.3789 c -0.12654,-0.3018 -0.45226,-0.9259 -0.90039,-1.209 -0.34505,-0.218 -0.72689,-0.2988 -1.11719,-0.2988 z"
     id="path37"
     inkscape:connector-curvature="0" />
  <path
     style="fill:#000000;fill-opacity:1;fill-rule:evenodd;stroke:#000000;stroke-width:0.00600449px;stroke-linecap:round;stroke-linejoin:round;stroke-miterlimit:4;stroke-dasharray:none;stroke-opacity:1"
     d="m 434.89206,607.25424 c -2.56992,0.298 -4.62346,1.4546 -6.17262,3.4695 -1.6152,2.0984 -2.4078,4.7393 -2.4078,7.9466 0,3.1714 0.7926,5.7945 2.4078,7.8988 1.54916,2.0329 3.6027,3.1954 6.17262,3.4994 v -2.325 c -1.74731,-0.3159 -3.15836,-1.2221 -4.22716,-2.7422 -1.17088,-1.699 -1.74731,-3.8094 -1.74731,-6.3608 0,-2.5813 0.57643,-4.7095 1.74731,-6.4026 1.0688,-1.5201 2.47985,-2.4322 4.22716,-2.7422 z m 2.80409,0 v 2.2474 c 1.71729,0.31 3.09832,1.2221 4.15511,2.7363 1.21291,1.6931 1.82536,3.8213 1.82536,6.4026 0,2.5216 -0.61245,4.6379 -1.82536,6.3608 -1.05679,1.5082 -2.43782,2.4203 -4.15511,2.7363 v 2.3309 c 2.54591,-0.31 4.58743,-1.4725 6.13659,-3.4994 1.63322,-2.1043 2.44383,-4.7274 2.44383,-7.8988 0,-3.2073 -0.81061,-5.8482 -2.44383,-7.9466 -1.54916,-2.009 -3.59068,-3.1655 -6.13659,-3.4695 z m -1.39904,7.9286 c -1.57318,0 -2.82812,1.55 -2.82812,3.4815 0,1.9315 1.25494,3.4815 2.82812,3.4815 1.56717,0 2.82811,-1.55 2.82811,-3.4815 0,-1.9315 -1.26094,-3.4815 -2.82811,-3.4815 z"
     id="path39"
     inkscape:connector-curvature="0" />
  <path
     style="fill:#000000;fill-opacity:1;fill-rule:evenodd;stroke:#000000;stroke-width:0.00600449px;stroke-linecap:round;stroke-linejoin:round;stroke-miterlimit:4;stroke-dasharray:none;stroke-opacity:1"
     d="m 366.74068,648.44144 c -0.35427,0 -0.66007,0.096 -0.90625,0.2871 -0.25219,0.2146 -0.37305,0.5244 -0.37305,0.9239 v 5.5917 h -2.16016 c -0.61846,0 -0.92578,0.3568 -0.92578,1.0782 0,0.7511 0.30732,1.1211 0.92578,1.1211 h 2.16016 v 7.8086 h -14.2832 v -0.9063 h -3.54297 v 3.5176 h 3.54297 v -0.9004 h 14.2832 v 6.75 c 0,1.0552 0.32583,1.9485 0.98633,2.6758 0.70853,0.8346 1.69218,1.2578 2.95312,1.2578 h 1.92774 c 0.38428,0 0.69717,-0.1246 0.94336,-0.375 0.21616,-0.2206 0.33007,-0.4714 0.33007,-0.7754 0,-0.3279 -0.11391,-0.5958 -0.33007,-0.8164 -0.24619,-0.2206 -0.55922,-0.3281 -0.9375,-0.3281 h -1.47071 c -0.60045,0 -1.06247,-0.2021 -1.38672,-0.6075 -0.2762,-0.3219 -0.4082,-0.7279 -0.4082,-1.2167 v -16.084 h 3.28906 c 0.69652,0 1.05078,-0.37 1.05078,-1.1211 0,-0.7214 -0.35426,-1.0782 -1.05078,-1.0782 h -3.28906 v -5.5917 c 0,-0.3995 -0.13785,-0.7093 -0.41406,-0.9239 -0.24619,-0.1907 -0.5538,-0.2871 -0.91406,-0.2871 z m -17.07032,6.1348 c -3.17637,0 -5.64483,1.18 -7.41015,3.5586 -1.57318,2.1342 -2.35352,4.7984 -2.35352,8.0176 0,3.3205 0.75025,5.9848 2.27539,8.0117 1.71128,2.319 4.20383,3.4824 7.48828,3.4824 2.52189,0 4.55045,-0.5611 6.09961,-1.6699 1.17088,-0.8704 2.15004,-2.1582 2.97266,-3.8692 0.16212,-0.4113 0.15113,-0.7434 -0.041,-1.0117 -0.16212,-0.2802 -0.43226,-0.4478 -0.81054,-0.5312 -0.36027,-0.089 -0.69139,-0.059 -1.01563,0.078 -0.39029,0.1669 -0.6302,0.4289 -0.73828,0.8164 -0.49237,1.4069 -1.23162,2.3959 -2.23437,2.998 -1.00876,0.5962 -2.4671,0.8945 -4.39454,0.8945 -2.33574,0 -4.11312,-0.9177 -5.33203,-2.7539 -1.11683,-1.6751 -1.66992,-3.8449 -1.66992,-6.5156 0,-2.617 0.55309,-4.7584 1.66992,-6.4336 1.24894,-1.9196 3.02031,-2.873 5.33203,-2.873 1.71128,0 3.04456,0.2871 4.0293,0.8593 0.97273,0.6081 1.656,1.5424 2.07031,2.836 0.0841,0.3815 0.29598,0.6514 0.65625,0.8183 0.29422,0.1372 0.62939,0.1655 1.01368,0.082 0.35426,-0.083 0.61825,-0.255 0.8164,-0.5293 0.21616,-0.2742 0.28328,-0.5838 0.19922,-0.9355 -0.43833,-1.4427 -1.30958,-2.6473 -2.64258,-3.625 -1.6032,-1.1386 -3.59068,-1.7051 -5.98047,-1.7051 z"
     id="path15"
     inkscape:connector-curvature="0" />
</svg>
