<?xml version="1.0" encoding="UTF-8" standalone="no"?>
<svg
   xmlns:dc="http://purl.org/dc/elements/1.1/"
   xmlns:cc="http://creativecommons.org/ns#"
   xmlns:rdf="http://www.w3.org/1999/02/22-rdf-syntax-ns#"
   xmlns:svg="http://www.w3.org/2000/svg"
   xmlns="http://www.w3.org/2000/svg"
   xmlns:sodipodi="http://sodipodi.sourceforge.net/DTD/sodipodi-0.dtd"
   xmlns:inkscape="http://www.inkscape.org/namespaces/inkscape"
   version="1.0"
   width="76.550003mm"
   height="34.27mm"
   id="svg43"
   sodipodi:docname="logo.svg"
   inkscape:version="0.92.3 (2405546, 2018-03-11)">
  <metadata
     id="metadata47">
    <rdf:RDF>
      <cc:Work
         rdf:about="">
        <dc:format>image/svg+xml</dc:format>
        <dc:type
           rdf:resource="http://purl.org/dc/dcmitype/StillImage" />
        <dc:title />
      </cc:Work>
    </rdf:RDF>
  </metadata>
  <sodipodi:namedview
     pagecolor="#ffffff"
     bordercolor="#666666"
     borderopacity="1"
     objecttolerance="10"
     gridtolerance="10"
     guidetolerance="10"
     inkscape:pageopacity="0"
     inkscape:pageshadow="2"
     inkscape:window-width="1920"
     inkscape:window-height="1008"
     id="namedview45"
     showgrid="false"
     inkscape:snap-bbox="true"
     inkscape:bbox-nodes="false"
     inkscape:object-paths="true"
     inkscape:zoom="5.6568542"
     inkscape:cx="147.61411"
     inkscape:cy="70.465721"
     inkscape:window-x="-11"
     inkscape:window-y="-11"
     inkscape:window-maximized="1"
     inkscape:current-layer="svg43"
     inkscape:lockguides="false"
     inkscape:snap-intersection-paths="true"
     inkscape:snap-smooth-nodes="true"
     inkscape:measure-start="35.5653,73.3513"
     inkscape:measure-end="37.1621,72.5244" />
  <defs
     id="defs3">
    <pattern
       id="EMFhbasepattern"
       patternUnits="userSpaceOnUse"
       width="6"
       height="6"
       x="0"
       y="0" />
  </defs>
  <path
     style="fill:#000000;fill-opacity:1;fill-rule:evenodd;stroke:#000000;stroke-width:0.00600449px;stroke-linecap:round;stroke-linejoin:round;stroke-miterlimit:4;stroke-dasharray:none;stroke-opacity:1"
     d="m 89.496126,43.486267 c -0.624467,1.096899 -1.537149,1.961303 -2.726038,2.575328 -1.326992,0.697484 -2.93019,1.049207 -4.797586,1.049207 -1.657239,0 -2.87615,-0.351723 -3.662738,-1.049207 -0.774579,-0.643832 -1.158866,-1.627465 -1.158866,-2.938974 0,-1.371124 0.408305,-2.402448 1.224916,-3.099932 0.840628,-0.751138 2.281705,-1.263819 4.317227,-1.532082 2.035521,-0.268263 3.63872,-0.578257 4.80359,-0.92998 0.954714,-0.292109 1.615208,-0.602102 1.999495,-0.929979 z M 83.899943,26.329335 c -2.275701,0 -4.113075,0.500758 -5.494107,1.496314 -1.411055,1.055169 -2.275701,2.617058 -2.599943,4.697589 -0.08406,0.405376 0,0.727292 0.246184,0.965748 0.216161,0.244418 0.486363,0.38153 0.81661,0.405376 0.354265,0.02981 0.660494,-0.05365 0.906678,-0.244418 0.300224,-0.190765 0.480359,-0.459028 0.534399,-0.810752 0.132099,-1.353239 0.606454,-2.384563 1.423064,-3.088009 0.924691,-0.810751 2.305723,-1.216127 4.149101,-1.216127 1.897419,0 3.320482,0.351723 4.269191,1.055169 0.900674,0.673639 1.345006,1.675156 1.345006,3.00455 0,1.162474 -0.408305,1.961303 -1.224916,2.390524 -0.846633,0.46499 -2.720033,0.900173 -5.638214,1.305549 -3.296464,0.405375 -5.566161,1.305548 -6.821099,2.71244 -0.840628,0.971709 -1.260942,2.342833 -1.260942,4.125294 0,1.973226 0.618462,3.499346 1.855387,4.578361 1.266947,1.126706 3.122333,1.69304 5.560156,1.69304 1.783333,0 3.386531,-0.321916 4.797586,-0.959787 1.026767,-0.453067 1.945454,-1.073053 2.762064,-1.859959 0,0.840559 0.24018,1.430738 0.726543,1.782461 0.600449,0.369607 1.669248,0.560372 3.212402,0.560372 0.384287,0 0.684511,-0.125189 0.900673,-0.363645 0.186139,-0.220573 0.282211,-0.476913 0.282211,-0.780945 -0.03002,-0.327877 -0.138104,-0.602102 -0.324243,-0.822674 -0.216161,-0.214611 -0.486363,-0.327878 -0.81661,-0.327878 -0.486364,0 -0.864646,-0.131151 -1.134848,-0.405375 -0.246184,-0.238457 -0.366274,-0.584218 -0.366274,-1.049208 v -12.78722 c 0,-2.128222 -0.786588,-3.702034 -2.365768,-4.721434 -1.381033,-0.88825 -3.296464,-1.335356 -5.740291,-1.335356 z"
     id="path5"
     inkscape:connector-curvature="0" />
  <path
     style="fill:#000000;fill-opacity:1;fill-rule:evenodd;stroke:#000000;stroke-width:0.00600449px;stroke-linecap:round;stroke-linejoin:round;stroke-miterlimit:4;stroke-dasharray:none;stroke-opacity:1"
     d="m 105.94242,26.329335 c -2.19764,0 -3.96897,0.488836 -5.32598,1.460545 -1.435075,1.025362 -2.149609,2.444177 -2.149609,4.250484 0,1.675155 0.594445,3.010511 1.789339,4.006066 1.08081,0.947864 2.82811,1.728808 5.23591,2.348794 2.65399,0.643832 4.47335,1.359201 5.44607,2.140146 0.81061,0.619986 1.21891,1.478429 1.21891,2.581289 0,1.180359 -0.47435,2.122261 -1.41706,2.819746 -1.00274,0.780945 -2.37777,1.174397 -4.13709,1.174397 -2.10757,0 -3.63872,-0.393452 -4.58142,-1.174397 -0.89467,-0.727292 -1.339,-1.788422 -1.339,-3.195314 -0.03,-0.375569 -0.18014,-0.655755 -0.45034,-0.84652 -0.246183,-0.190765 -0.546408,-0.268264 -0.906677,-0.244418 -0.354265,0 -0.64248,0.107305 -0.858642,0.321916 -0.288215,0.244418 -0.41431,0.560372 -0.390292,0.935941 0.08406,2.110338 0.846633,3.72588 2.287711,4.834702 1.44108,1.10286 3.50662,1.657271 6.20264,1.657271 2.69001,0 4.75555,-0.619986 6.19663,-1.853998 1.33299,-1.108822 1.99949,-2.563405 1.99949,-4.375673 0,-1.806307 -0.55842,-3.225122 -1.66925,-4.250484 -1.16487,-1.10286 -3.16436,-1.985148 -6.01049,-2.62898 -2.32974,-0.596141 -3.92693,-1.234012 -4.79758,-1.913612 -0.81061,-0.649794 -1.21892,-1.526121 -1.21892,-2.634943 0,-0.947863 0.46235,-1.734769 1.38104,-2.354756 0.92469,-0.566333 2.07755,-0.852481 3.46459,-0.852481 1.81335,0 3.18237,0.3398 4.10707,1.013439 0.86464,0.625948 1.35701,1.538044 1.46509,2.730325 0.024,0.38153 0.18614,0.679601 0.48036,0.894211 0.2702,0.190765 0.58244,0.268264 0.9307,0.244418 0.37828,-0.05365 0.68451,-0.190765 0.92469,-0.405376 0.2702,-0.268263 0.39029,-0.59614 0.36627,-0.971709 -0.1381,-1.645349 -0.81661,-2.968781 -2.02952,-3.970298 -1.40505,-1.156513 -3.47659,-1.740731 -6.21464,-1.740731 z"
     id="path7"
     inkscape:connector-curvature="0" />
  <path
     style="fill:#000000;fill-opacity:1;fill-rule:evenodd;stroke:#000000;stroke-width:0.00600449px;stroke-linecap:round;stroke-linejoin:round;stroke-miterlimit:4;stroke-dasharray:none;stroke-opacity:1"
     d="m 122.08849,21.411174 v 5.5918 h -2.16162 c -0.61246,0 -0.91869,0.357685 -0.91869,1.079015 0,0.745176 0.30623,1.120745 0.91869,1.120745 h 2.16162 v 16.268681 c 0,1.05517 0.33024,1.949381 0.98473,2.676672 0.71454,0.834598 1.69927,1.251896 2.95421,1.251896 h 1.92744 c 0.38429,0 0.70253,-0.12519 0.94871,-0.369607 0.21616,-0.220572 0.32424,-0.470951 0.32424,-0.774983 0,-0.327878 -0.10808,-0.602102 -0.32424,-0.822674 -0.24618,-0.214611 -0.55842,-0.321917 -0.9427,-0.321917 h -1.4711 c -0.60045,0 -1.0628,-0.202687 -1.38704,-0.608063 -0.2702,-0.327878 -0.4083,-0.733253 -0.4083,-1.216127 V 29.202734 h 3.29646 c 0.69652,0 1.04478,-0.375569 1.04478,-1.120745 0,-0.72133 -0.34826,-1.079015 -1.04478,-1.079015 h -3.29646 v -5.5918 c 0,-0.399414 -0.13811,-0.715369 -0.40831,-0.92998 -0.25219,-0.184803 -0.55241,-0.280186 -0.91268,-0.280186 -0.36027,0 -0.6605,0.09538 -0.90668,0.280186 -0.25219,0.214611 -0.37828,0.530566 -0.37828,0.92998 z"
     id="path9"
     inkscape:connector-curvature="0" />
  <path
     style="fill:#000000;fill-opacity:1;fill-rule:evenodd;stroke:#000000;stroke-width:0.00600449px;stroke-linecap:round;stroke-linejoin:round;stroke-miterlimit:4;stroke-dasharray:none;stroke-opacity:1"
     d="m 157.67709,27.754112 v 20.310516 c 0,0.387491 0.12009,0.697484 0.36627,0.953825 0.24018,0.190765 0.5344,0.286148 0.88867,0.286148 0.32424,0 0.60645,-0.09538 0.84663,-0.286148 0.2702,-0.256341 0.4023,-0.566334 0.4023,-0.953825 l -0.036,-15.28505 c 0.48637,-1.049207 1.1949,-1.86592 2.11959,-2.462061 1.02677,-0.673639 2.28771,-1.615541 3.6147,-1.615541 0.67851,0 0.9367,-0.709408 0.9367,-1.144591 0.024,-0.417298 -0.43833,-1.174397 -1.03277,-1.174397 -1.30898,0 -2.37177,0.262302 -3.40455,0.882288 -0.78658,0.482874 -1.51313,1.198243 -2.19764,2.140146 V 27.74815 c 0,-0.375568 -0.1321,-0.673639 -0.4023,-0.88825 -0.24018,-0.160958 -0.52239,-0.238456 -0.84663,-0.238456 -0.35427,0 -0.64849,0.09538 -0.88867,0.280186 -0.24618,0.220572 -0.36627,0.500759 -0.36627,0.852482 z"
     id="path11"
     inkscape:connector-curvature="0" />
  <path
     style="fill:#000000;fill-opacity:1;fill-rule:evenodd;stroke:#000000;stroke-width:0.006;stroke-linecap:round;stroke-linejoin:round;stroke-miterlimit:4;stroke-dasharray:none;stroke-opacity:1"
     d="M 216.91797 18.265625 C 216.38226 18.234675 215.82736 18.282025 215.33203 18.40625 C 214.66374 18.573854 214.27479 18.693358 213.57227 19.492188 C 212.95381 20.213518 212.64258 21.112493 212.64258 22.185547 L 212.64258 27.003906 L 210.61328 27.003906 C 210.20497 27.003906 209.87495 27.10971 209.63477 27.318359 C 209.4186 27.53297 209.31055 27.789922 209.31055 28.082031 C 209.31055 28.37414 209.4186 28.631093 209.63477 28.845703 C 209.87495 29.08416 210.20497 29.203125 210.61328 29.203125 L 212.64258 29.203125 L 212.64258 48.029297 C 212.64258 48.458519 212.76162 48.8039 213.00781 49.078125 C 213.24799 49.292736 213.54822 49.400391 213.89648 49.400391 C 214.22072 49.400391 214.50382 49.281527 214.75 49.037109 C 215.0142 48.768846 215.15234 48.434673 215.15234 48.029297 L 215.15234 29.203125 L 218.125 29.203125 C 218.5273 29.203125 218.85748 29.08416 219.09766 28.845703 C 219.31382 28.631093 219.42773 28.37414 219.42773 28.082031 C 219.42773 27.789922 219.31382 27.53297 219.09766 27.318359 C 218.85748 27.10971 218.5273 27.003906 218.125 27.003906 L 215.15234 27.003906 L 215.15234 22.376953 C 215.15234 21.876195 215.28434 21.464494 215.56055 21.142578 C 215.88479 20.772971 216.32172 20.586736 216.76953 20.541016 C 217.16714 20.500416 217.92969 20.847656 217.92969 20.847656 L 223.12891 23.248047 L 223.35352 22.765625 L 225.99023 24.009766 L 226.49805 22.916016 L 223.86523 21.673828 L 224.09961 21.173828 L 218.38867 18.595703 C 217.96869 18.405989 217.45368 18.296575 216.91797 18.265625 z "
     id="path13" />
  <path
     style="fill:#000000;fill-opacity:1;fill-rule:evenodd;stroke:#000000;stroke-width:0.00600449px;stroke-linecap:round;stroke-linejoin:round;stroke-miterlimit:4;stroke-dasharray:none;stroke-opacity:1"
     d="m 194.41855,68.899748 v 5.5918 h -2.16161 c -0.61847,0 -0.92469,0.357685 -0.92469,1.079015 0,0.751137 0.30622,1.120745 0.92469,1.120745 h 2.16161 v 16.268681 c 0,1.055169 0.33025,1.94938 0.98474,2.676672 0.70853,0.834597 1.69326,1.257857 2.95421,1.257857 h 1.92744 c 0.38428,0 0.69652,-0.125189 0.9427,-0.375568 0.21616,-0.220573 0.33025,-0.470952 0.33025,-0.774983 0,-0.327878 -0.11409,-0.596141 -0.33025,-0.816713 -0.24618,-0.220572 -0.55842,-0.327878 -0.9367,-0.327878 h -1.4711 c -0.60045,0 -1.06279,-0.202688 -1.38703,-0.608063 -0.27621,-0.321916 -0.40831,-0.727292 -0.40831,-1.216128 V 76.691308 h 3.29646 c 0.69652,0 1.04479,-0.369608 1.04479,-1.120745 0,-0.72133 -0.34827,-1.079015 -1.04479,-1.079015 h -3.29646 v -5.5918 c 0,-0.399415 -0.1381,-0.709408 -0.41431,-0.924019 -0.24618,-0.190765 -0.55241,-0.286147 -0.91268,-0.286147 -0.35427,0 -0.6605,0.09538 -0.90668,0.286147 -0.24618,0.214611 -0.37228,0.524604 -0.37228,0.924019 z"
     id="path17"
     inkscape:connector-curvature="0" />
  <path
     style="fill:#000000;fill-opacity:1;fill-rule:evenodd;stroke:#000000;stroke-width:0.00600449px;stroke-linecap:round;stroke-linejoin:round;stroke-miterlimit:4;stroke-dasharray:none;stroke-opacity:1"
     d="m 203.86962,75.51691 7.59567,19.076505 -1.42906,2.986665 c -0.37829,0.810752 -0.72054,1.359201 -1.01476,1.657271 -0.35427,0.351724 -0.82862,0.524604 -1.42307,0.524604 L 42.414934,99.678496 c -0.408305,0 -0.726543,0.107305 -0.942705,0.321914 -0.186139,0.21461 -0.282211,0.46499 -0.282211,0.76306 0,0.29211 0.09607,0.54249 0.282211,0.7571 0.216162,0.23846 0.528395,0.36365 0.9367,0.36365 l 165.177471,0.0835 c 1.11083,0 2.08355,-0.3398 2.92418,-1.01344 0.86465,-0.67364 1.6032,-1.693043 2.22767,-3.064167 l 9.16885,-22.641426 c 0.1321,-0.321916 0.10808,-0.619987 -0.0841,-0.88825 -0.19215,-0.238456 -0.46235,-0.405376 -0.81061,-0.482874 -0.35426,-0.08346 -0.68451,-0.07154 -0.97873,0.04173 -0.37828,0.107305 -0.62447,0.333839 -0.73255,0.685562 l -6.46683,16.721748 -6.5509,-16.840976 c -0.1381,-0.351723 -0.37228,-0.572295 -0.69652,-0.661717 -0.32424,-0.08346 -0.65449,-0.04173 -0.97873,0.119229 -0.33025,0.137112 -0.57643,0.3398 -0.73855,0.608063 -0.16212,0.298071 -0.16212,0.619987 0,0.965748 z"
     id="path19"
     inkscape:connector-curvature="0" />
  <path
     style="fill:#000000;fill-opacity:1;fill-rule:evenodd;stroke:#000000;stroke-width:0.00600449px;stroke-linecap:round;stroke-linejoin:round;stroke-miterlimit:4;stroke-dasharray:none;stroke-opacity:1"
     d="m 50.010611,73.829832 c -2.906172,0 -5.199886,1.180359 -6.905161,3.55896 -1.555163,2.187837 -2.317733,4.846625 -2.317733,8.012132 0,3.129739 0.76257,5.75872 2.317733,7.928672 1.705275,2.372641 3.998989,3.552999 6.905161,3.552999 2.053535,0 3.836868,-0.530565 5.362008,-1.585734 1.489114,-1.013439 2.617957,-2.462061 3.41055,-4.36375 0.162121,-0.411338 0.162121,-0.786906 0,-1.144591 -0.144108,-0.304032 -0.366274,-0.500758 -0.690516,-0.608063 -0.36027,-0.143074 -0.690517,-0.154997 -1.014759,-0.04173 -0.360269,0.160958 -0.612458,0.441144 -0.774579,0.852481 -0.654489,1.412854 -1.393041,2.462061 -2.233669,3.17743 -1.086813,0.947864 -2.437823,1.424777 -4.059035,1.424777 -2.065543,0 -3.698764,-0.924018 -4.917675,-2.772055 -1.062795,-1.561889 -1.639226,-3.469539 -1.747307,-5.746797 l 2.966218,0.006 v -2.295142 l -2.918182,-0.006 c 0.162122,-1.979187 0.738553,-3.678188 1.747307,-5.114888 1.218911,-1.764576 2.828114,-2.634942 4.839617,-2.634942 2.005499,0 3.626711,0.88825 4.881649,2.676672 1.002749,1.460545 1.573176,3.147624 1.747306,5.073158 l -2.822109,-0.01788 v 2.295142 l 5.524129,0.01788 V 85.42477 c 0,-3.171469 -0.786588,-5.836218 -2.35376,-8.030016 -1.747306,-2.384563 -4.053029,-3.564922 -6.947193,-3.564922 z m -1.681256,9.371333 v 3.51723 h 3.542648 v -3.51723 z"
     id="path21"
     inkscape:connector-curvature="0" />
  <path
     style="fill:#000000;fill-opacity:1;fill-rule:evenodd;stroke:#000000;stroke-width:0.00600449px;stroke-linecap:round;stroke-linejoin:round;stroke-miterlimit:4;stroke-dasharray:none;stroke-opacity:1"
     d="m 83.287485,73.829832 c -2.906172,0 -5.199887,1.180359 -6.905161,3.55896 -1.555163,2.187837 -2.317733,4.846625 -2.317733,8.012132 0,3.129739 0.76257,5.75872 2.317733,7.928672 1.705274,2.372641 3.998989,3.552999 6.905161,3.552999 2.059539,0 3.836868,-0.530565 5.362008,-1.585734 1.489113,-1.013439 2.617957,-2.462061 3.416554,-4.36375 0.156116,-0.411338 0.156116,-0.786906 0,-1.144591 -0.150112,-0.304032 -0.372278,-0.500758 -0.696521,-0.608063 -0.360269,-0.143074 -0.690516,-0.154997 -1.014758,-0.04173 -0.36027,0.160958 -0.606454,0.441144 -0.768575,0.852481 -0.660494,1.412854 -1.399046,2.462061 -2.239674,3.17743 -1.086812,0.947864 -2.437822,1.424777 -4.059034,1.424777 -2.065544,0 -3.698765,-0.924018 -4.917676,-2.772055 -1.062794,-1.561889 -1.639225,-3.469539 -1.747306,-5.746797 l 2.966217,0.006 v -2.295142 l -2.918181,-0.006 c 0.162121,-1.979187 0.738552,-3.678188 1.747306,-5.114888 1.218911,-1.764576 2.828114,-2.634942 4.839618,-2.634942 2.005499,0 3.62671,0.88825 4.881648,2.676672 1.00275,1.460545 1.579181,3.147624 1.747307,5.073158 l -2.82211,-0.01788 v 2.295142 l 5.524129,0.01788 V 85.42477 c 0,-3.171469 -0.780583,-5.836218 -2.353759,-8.030016 -1.741302,-2.384563 -4.05303,-3.564922 -6.947193,-3.564922 z m -1.681257,9.371333 v 3.51723 h 3.542648 v -3.51723 z"
     id="path23"
     inkscape:connector-curvature="0" />
  <path
     style="fill:#000000;fill-opacity:1;fill-rule:evenodd;stroke:#000000;stroke-width:0.00600449px;stroke-linecap:round;stroke-linejoin:round;stroke-miterlimit:4;stroke-dasharray:none;stroke-opacity:1"
     d="m 135.59258,75.212878 v 20.316478 c 0,0.38153 0.12009,0.697485 0.36628,0.953825 0.24017,0.190765 0.53439,0.286148 0.88866,0.286148 0.31824,0 0.60045,-0.09538 0.84663,-0.286148 0.2702,-0.25634 0.4023,-0.572295 0.4023,-0.953825 l -0.036,-15.285049 c 0.48636,-1.049208 1.19489,-1.871883 2.11358,-2.462062 1.03277,-0.673639 2.29371,-1.615541 3.6207,-1.615541 0.67251,0 0.9307,-0.709408 0.9367,-1.150552 0.024,-0.411337 -0.43832,-1.168436 -1.03877,-1.168436 -1.30298,0 -2.36577,0.256341 -3.39854,0.882288 -0.78659,0.482874 -1.51914,1.198243 -2.19765,2.140146 v -1.657272 c 0,-0.375568 -0.1321,-0.673639 -0.4023,-0.888249 -0.24618,-0.160958 -0.52839,-0.244418 -0.84663,-0.244418 -0.35427,0 -0.64849,0.09538 -0.88866,0.286148 -0.24619,0.21461 -0.36628,0.500758 -0.36628,0.846519 z"
     id="path25"
     inkscape:connector-curvature="0" />
  <path
     style="fill:#000000;fill-opacity:1;fill-rule:evenodd;stroke:#000000;stroke-width:0.00600449px;stroke-linecap:round;stroke-linejoin:round;stroke-miterlimit:4;stroke-dasharray:none;stroke-opacity:1"
     d="m 151.15021,67.337859 c -0.50438,0 -0.88866,0.154996 -1.16487,0.476912 -0.24618,0.292109 -0.36627,0.649794 -0.36627,1.090938 0,0.411337 0.12009,0.757099 0.36627,1.031324 0.27621,0.315954 0.66049,0.476912 1.16487,0.476912 0.47436,0 0.85864,-0.160958 1.15887,-0.476912 0.2702,-0.298071 0.4083,-0.637871 0.4083,-1.031324 0,-0.441144 -0.1381,-0.798829 -0.4083,-1.090938 -0.30023,-0.321916 -0.68451,-0.476912 -1.15887,-0.476912 z m -0.006,6.486011 c -0.36027,0 -0.6605,0.101344 -0.91269,0.321916 -0.24618,0.190765 -0.36627,0.470952 -0.36627,0.84652 v 20.572818 c 0,0.399415 0.12009,0.733253 0.36627,1.001517 0.25219,0.21461 0.55242,0.327877 0.91269,0.327877 0.35426,0 0.65449,-0.125189 0.91268,-0.369607 0.2702,-0.244418 0.4083,-0.560372 0.4083,-0.959787 V 74.992306 c 0,-0.375568 -0.1381,-0.673639 -0.4083,-0.888249 -0.25819,-0.190765 -0.55842,-0.280187 -0.91268,-0.280187 z"
     id="path27"
     inkscape:connector-curvature="0" />
  <path
     style="fill:#000000;fill-opacity:1;fill-rule:evenodd;stroke:#000000;stroke-width:0.00600449px;stroke-linecap:round;stroke-linejoin:round;stroke-miterlimit:4;stroke-dasharray:none;stroke-opacity:1"
     d="m 66.709093,65.907121 c -0.360269,0 -0.654489,0.107305 -0.906678,0.327877 -0.282211,0.244418 -0.414309,0.554411 -0.414309,0.965748 v 8.131361 0 20.268786 c 0,0.405375 0.114085,0.715369 0.372278,0.965748 0.246184,0.21461 0.540404,0.327877 0.906678,0.327877 0.360269,0 0.654489,-0.113267 0.912682,-0.327877 0.270202,-0.250379 0.408305,-0.560373 0.408305,-0.965748 v -20.268786 0 -8.131361 c 0,-0.411337 -0.12009,-0.72133 -0.372278,-0.965748 -0.252189,-0.220572 -0.546409,-0.327877 -0.906678,-0.327877 z"
     id="path29"
     inkscape:connector-curvature="0" />
  <path
     style="fill:#000000;fill-opacity:1;fill-rule:evenodd;stroke:#000000;stroke-width:0.00600449px;stroke-linecap:round;stroke-linejoin:round;stroke-miterlimit:4;stroke-dasharray:none;stroke-opacity:1"
     d="m 142.20953,26.341258 c -2.90617,0 -5.19989,1.174397 -6.90516,3.55896 -1.55517,2.187837 -2.31774,4.846625 -2.31774,8.012132 0,3.123778 0.76257,5.75872 2.31774,7.928673 1.70527,2.366679 3.99899,3.552999 6.90516,3.552999 2.05353,0 3.83687,-0.530566 5.36201,-1.585735 1.48911,-1.013439 2.61795,-2.462061 3.41054,-4.36375 0.16213,-0.417299 0.16213,-0.786906 0,-1.144591 -0.1441,-0.304031 -0.36627,-0.500758 -0.69051,-0.614025 -0.36027,-0.137112 -0.69052,-0.149035 -1.01476,-0.03577 -0.36027,0.160958 -0.61246,0.441144 -0.77458,0.852481 -0.65449,1.412854 -1.39304,2.462062 -2.23367,3.171469 -1.08681,0.953825 -2.43782,1.430738 -4.05903,1.430738 -2.06555,0 -3.69877,-0.924018 -4.91768,-2.778016 -1.06279,-1.555927 -1.63922,-3.463578 -1.7473,-5.740836 l 2.96621,0.006 v -2.295142 l -2.91818,-0.006 c 0.16212,-1.979188 0.73855,-3.678189 1.74731,-5.114888 1.21891,-1.764577 2.82811,-2.634943 4.83962,-2.634943 2.00549,0 3.62671,0.882289 4.88164,2.676673 1.00275,1.460544 1.57918,3.147623 1.74731,5.073158 l -2.82211,-0.01788 v 2.295142 l 5.52413,0.01788 v -0.649793 c 0,-3.171469 -0.78659,-5.836218 -2.35376,-8.030016 -1.74731,-2.384563 -4.05303,-3.564922 -6.94719,-3.564922 z m -1.68126,9.365372 v 3.51723 h 3.54265 v -3.51723 z"
     id="path31"
     inkscape:connector-curvature="0" />
  <path
     style="opacity:0.83999999;fill:#000000;fill-opacity:1;fill-rule:evenodd;stroke:#000000;stroke-width:0.00600449px;stroke-linecap:round;stroke-linejoin:round;stroke-miterlimit:4;stroke-dasharray:none;stroke-opacity:1"
     d="m 184.95508,67.337891 c -0.51038,0 -0.89386,0.154646 -1.16406,0.476562 -0.25219,0.292109 -0.37305,0.650653 -0.37305,1.091797 0,0.411337 0.12086,0.757025 0.37305,1.03125 0.2702,0.315954 0.65368,0.476563 1.16406,0.476562 0.47435,0 0.85212,-0.160608 1.15234,-0.476562 0.27621,-0.298071 0.41016,-0.637797 0.41016,-1.03125 0,-0.441144 -0.13395,-0.799688 -0.41016,-1.091797 -0.30022,-0.321916 -0.67799,-0.476562 -1.15234,-0.476562 z m -16.35547,6.486328 c -3.18238,0 -5.64484,1.179992 -7.41016,3.558593 -1.57918,2.134184 -2.35351,4.798419 -2.35351,8.017579 0,3.320504 0.7504,5.98484 2.26953,8.011718 1.71128,2.318988 4.20368,3.482422 7.49414,3.482422 2.52189,0 4.55046,-0.5611 6.09961,-1.669922 1.16487,-0.870365 2.15005,-2.158216 2.97266,-3.86914 0.16212,-0.411337 0.14509,-0.743455 -0.041,-1.011719 -0.16812,-0.280186 -0.44007,-0.44779 -0.81836,-0.53125 -0.36027,-0.08942 -0.68942,-0.05899 -1.01367,0.07813 -0.38428,0.16692 -0.62434,0.428915 -0.73242,0.816406 -0.49237,1.406892 -1.23749,2.395945 -2.24024,2.998047 -1.00875,0.596141 -2.46723,0.894531 -4.38867,0.894531 -2.34175,0 -4.11312,-0.917793 -5.33203,-2.753906 -1.11684,-1.675156 -1.66992,-3.844914 -1.66992,-6.515625 0,-2.617058 0.55308,-4.758438 1.66992,-6.433594 1.24893,-1.919573 3.0203,-2.873047 5.33203,-2.873046 1.70528,0 3.04471,0.287079 4.02344,0.859374 0.97873,0.608064 1.66186,1.542312 2.07617,2.835938 0.0781,0.38153 0.29417,0.65144 0.64844,0.818359 0.30022,0.137113 0.63119,0.165492 1.02148,0.08203 0.34826,-0.08346 0.6184,-0.255072 0.81055,-0.529297 0.21616,-0.274225 0.28314,-0.583824 0.20508,-0.935547 -0.43833,-1.442661 -1.31558,-2.647329 -2.64258,-3.625 -1.6092,-1.138629 -3.59668,-1.705078 -5.98047,-1.705078 z m 16.34961,0 c -0.36627,0 -0.66592,0.101693 -0.91211,0.322265 -0.25219,0.190765 -0.37305,0.470136 -0.37305,0.845704 V 84.5 h -13.55859 v -0.90625 h -3.54102 v 3.517578 h 3.54102 v -0.90039 h 13.55859 v 9.353515 c 0,0.399415 0.12086,0.733689 0.37305,1.001953 0.24619,0.21461 0.54584,0.328125 0.91211,0.328125 0.35427,0 0.65406,-0.124722 0.90625,-0.36914 0.27621,-0.244418 0.41406,-0.561523 0.41406,-0.960938 V 74.992188 c 0,-0.375569 -0.13785,-0.674062 -0.41406,-0.888672 -0.25219,-0.190765 -0.55198,-0.279297 -0.90625,-0.279297 z"
     id="path33"
     inkscape:connector-curvature="0" />
  <path
     style="fill:#000000;fill-opacity:1;fill-rule:evenodd;stroke:#000000;stroke-width:0.00600449px;stroke-linecap:round;stroke-linejoin:round;stroke-miterlimit:4;stroke-dasharray:none;stroke-opacity:1"
     d="M 43.658203 18.240234 C 43.165835 18.270044 42.873361 18.443607 42.537109 18.771484 C 42.158826 19.123207 41.966797 19.587453 41.966797 20.183594 L 41.953125 32.458984 L 41.953125 45.435547 C 41.953125 46.138993 41.946525 47.003454 41.814453 47.486328 C 41.688359 47.969202 41.208216 48.416278 40.835938 48.857422 L 35.232422 55.267578 L 35.652344 55.644531 L 32.869141 58.720703 L 33.964844 59.695312 L 36.744141 56.625 L 37.162109 57 L 42.619141 50.734375 C 42.979411 50.317077 43.604508 49.548042 43.886719 49.023438 C 44.168929 48.498832 44.457031 48.248675 44.457031 46.728516 L 44.457031 32.458984 L 44.457031 22.501953 C 47.508125 28.885982 50.02453 34.116514 53.115234 40.583984 C 53.547557 41.579539 54.141727 42.074219 54.904297 42.074219 C 55.690885 42.074219 56.298146 41.579539 56.730469 40.583984 L 65.388672 22.466797 L 65.388672 48.113281 C 65.388672 48.518657 65.507578 48.827746 65.759766 49.078125 C 66.00595 49.292736 66.307699 49.400391 66.667969 49.400391 C 67.028238 49.400391 67.327889 49.292736 67.580078 49.078125 C 67.85028 48.827746 67.988281 48.518657 67.988281 48.113281 L 67.988281 20.230469 C 67.988281 19.634328 67.796252 19.170082 67.417969 18.818359 C 67.081717 18.490482 66.679868 18.316916 66.1875 18.287109 C 65.797208 18.287109 65.415365 18.367939 65.070312 18.585938 C 64.622187 18.869063 64.29647 19.493099 64.169922 19.794922 L 63.070312 22.173828 C 61.569188 25.284206 54.927734 38.341797 54.927734 38.341797 C 52.241605 32.889936 49.440413 27.626538 46.775391 22.126953 L 45.675781 19.748047 C 45.549234 19.446224 45.223516 18.822188 44.775391 18.539062 C 44.430339 18.32106 44.048495 18.240234 43.658203 18.240234 z "
     id="path37" />
  <path
     style="fill:#000000;fill-opacity:1;fill-rule:evenodd;stroke:#000000;stroke-width:0.00600449px;stroke-linecap:round;stroke-linejoin:round;stroke-miterlimit:4;stroke-dasharray:none;stroke-opacity:1"
     d="m 193.06154,26.502216 c -2.56992,0.29807 -4.62346,1.454583 -6.17262,3.469539 -1.6152,2.098416 -2.4078,4.739319 -2.4078,7.946557 0,3.171469 0.7926,5.794488 2.4078,7.898865 1.54916,2.03284 3.6027,3.195315 6.17262,3.499346 v -2.324949 c -1.74731,-0.315954 -3.15836,-1.222088 -4.22716,-2.742247 -1.17088,-1.699001 -1.74731,-3.80934 -1.74731,-6.360822 0,-2.58129 0.57643,-4.709512 1.74731,-6.402552 1.0688,-1.520159 2.47985,-2.432254 4.22716,-2.742248 z m 2.80409,0 v 2.247451 c 1.71729,0.309993 3.09832,1.222088 4.15511,2.736286 1.21291,1.69304 1.82536,3.821262 1.82536,6.402552 0,2.521675 -0.61245,4.637975 -1.82536,6.360822 -1.05679,1.508236 -2.43782,2.420331 -4.15511,2.736286 v 2.33091 c 2.54591,-0.309993 4.58743,-1.472467 6.13659,-3.499346 1.63322,-2.104377 2.44383,-4.727396 2.44383,-7.898865 0,-3.207238 -0.81061,-5.848141 -2.44383,-7.946557 -1.54916,-2.008994 -3.59068,-3.165507 -6.13659,-3.469539 z m -1.39904,7.928672 c -1.57318,0 -2.82812,1.549966 -2.82812,3.481462 0,1.931496 1.25494,3.481463 2.82812,3.481463 1.56717,0 2.82811,-1.549967 2.82811,-3.481463 0,-1.931496 -1.26094,-3.481462 -2.82811,-3.481462 z"
     id="path39"
     inkscape:connector-curvature="0" />
  <path
     style="fill:#000000;fill-opacity:1;fill-rule:evenodd;stroke:#000000;stroke-width:0.00600449px;stroke-linecap:round;stroke-linejoin:round;stroke-miterlimit:4;stroke-dasharray:none;stroke-opacity:1"
     d="m 124.91016,67.689453 c -0.35427,0 -0.66007,0.09634 -0.90625,0.287109 -0.25219,0.214611 -0.37305,0.524414 -0.37305,0.923829 v 5.591797 h -2.16016 c -0.61846,0 -0.92578,0.356795 -0.92578,1.078124 0,0.751137 0.30732,1.121094 0.92578,1.121094 h 2.16016 V 84.5 h -14.2832 v -0.90625 h -3.54297 v 3.517578 h 3.54297 v -0.90039 h 14.2832 v 6.75 c 0,1.055169 0.32583,1.948489 0.98633,2.675781 0.70853,0.834597 1.69218,1.257812 2.95312,1.257812 h 1.92774 c 0.38428,0 0.69717,-0.124621 0.94336,-0.375 0.21616,-0.220573 0.33007,-0.471359 0.33007,-0.77539 0,-0.327878 -0.11391,-0.595835 -0.33007,-0.816407 -0.24619,-0.220572 -0.55922,-0.328125 -0.9375,-0.328125 h -1.47071 c -0.60045,0 -1.06247,-0.202047 -1.38672,-0.607421 -0.2762,-0.321917 -0.4082,-0.727961 -0.4082,-1.216797 V 76.691406 h 3.28906 c 0.69652,0 1.05078,-0.369957 1.05078,-1.121094 0,-0.72133 -0.35426,-1.078125 -1.05078,-1.078124 h -3.28906 v -5.591797 c 0,-0.399415 -0.13785,-0.709218 -0.41406,-0.923829 -0.24619,-0.190764 -0.5538,-0.287109 -0.91406,-0.287109 z m -17.07032,6.134766 c -3.17637,0 -5.64483,1.179992 -7.41015,3.558593 -1.573179,2.134184 -2.353518,4.798419 -2.353518,8.017579 0,3.320504 0.75025,5.98484 2.275388,8.011718 1.71128,2.318988 4.20383,3.482422 7.48828,3.482422 2.52189,0 4.55045,-0.5611 6.09961,-1.669922 1.17088,-0.870365 2.15004,-2.158216 2.97266,-3.86914 0.16212,-0.411337 0.15113,-0.743455 -0.041,-1.011719 -0.16212,-0.280186 -0.43226,-0.44779 -0.81054,-0.53125 -0.36027,-0.08942 -0.69139,-0.05899 -1.01563,0.07813 -0.39029,0.16692 -0.6302,0.428915 -0.73828,0.816406 -0.49237,1.406892 -1.23162,2.395945 -2.23437,2.998047 -1.00876,0.596141 -2.4671,0.894531 -4.39454,0.894531 -2.33574,0 -4.11312,-0.917793 -5.33203,-2.753906 -1.11683,-1.675156 -1.66992,-3.844914 -1.66992,-6.515625 0,-2.617058 0.55309,-4.758438 1.66992,-6.433594 1.24894,-1.919573 3.02031,-2.873047 5.33203,-2.873046 1.71128,0 3.04456,0.287079 4.0293,0.859374 0.97273,0.608064 1.656,1.542312 2.07031,2.835938 0.0841,0.38153 0.29598,0.65144 0.65625,0.818359 0.29422,0.137113 0.62939,0.165492 1.01368,0.08203 0.35426,-0.08346 0.61825,-0.255072 0.8164,-0.529297 0.21616,-0.274225 0.28328,-0.583824 0.19922,-0.935547 -0.43833,-1.442661 -1.30958,-2.647329 -2.64258,-3.625 -1.6032,-1.138629 -3.59068,-1.705078 -5.98047,-1.705078 z"
     id="path15"
     inkscape:connector-curvature="0" />
</svg>
